<?xml version="1.0" ?><!DOCTYPE svg  PUBLIC '-//W3C//DTD SVG 1.1//EN'  'http://www.w3.org/Graphics/SVG/1.1/DTD/svg11.dtd'><svg enable-background="new 0 0 512 512" id="Layer_1" version="1.1" viewBox="0 0 512 512" xml:space="preserve" xmlns="http://www.w3.org/2000/svg" xmlns:xlink="http://www.w3.org/1999/xlink">

<defs>
    <linearGradient id="grad1" x1="0%" y1="0%" x2="25%" y2="100%">
        <stop offset="0%" style="stop-color:#AAAAFF;" />
        <stop offset="42.5%" style="stop-color:#AAAAFF;" />
        <stop offset="42.5%" style="stop-color:#BBBBFF;" />
        <stop offset="100%" style="stop-color:#BBBBFF;" />
    </linearGradient>
</defs>
<rect width="512" height="512" fill="url(#grad1)" />

<g><g><g><path d="     M39.5,107.4V81.6c0-1.4,1.4-2.3,2.6-1.8l213.2,81.5c0.4,0.2,0.9,0.2,1.4,0l213.2-81.5c1.3-0.5,2.6,0.5,2.6,1.8v25.8" fill="none" stroke="#000000" stroke-linecap="round" stroke-linejoin="round" stroke-miterlimit="10" stroke-width="10"/></g><g><path d="     M64.1,87V60.7c0-1.5,1.6-2.4,2.9-1.7L255.1,161c0.6,0.3,1.3,0.3,1.9,0L445,58.9c1.3-0.7,2.9,0.2,2.9,1.7V87" fill="none" stroke="#000000" stroke-linecap="round" stroke-linejoin="round" stroke-miterlimit="10" stroke-width="10"/></g><g><path d="     M91.7,70.9V45c0-1.6,1.8-2.5,3.1-1.6l160,117.3c0.7,0.5,1.6,0.5,2.3,0l160-117.3c1.3-0.9,3.1,0,3.1,1.6v26.1" fill="none" stroke="#000000" stroke-linecap="round" stroke-linejoin="round" stroke-miterlimit="10" stroke-width="10"/></g><path d="    M494.5,410.6l-236.6,58.6c-1,0.2-1.9-0.5-1.9-1.5V163c0-0.9,0.6-1.7,1.5-1.9l236.1-58.5c1.2-0.3,2.4,0.6,2.4,1.9v304.2    C496,409.6,495.4,410.4,494.5,410.6z" fill="none" stroke="#000000" stroke-linecap="round" stroke-linejoin="round" stroke-miterlimit="10" stroke-width="10"/><path d="    M254.5,469.3l-237-58.7c-0.9-0.2-1.5-1-1.5-1.9V104.5c0-1.3,1.2-2.2,2.4-1.9l236.1,58.5c0.9,0.2,1.5,1,1.5,1.9v305.1    C256,469,255.3,469.5,254.5,469.3z" fill="none" stroke="#000000" stroke-linecap="round" stroke-linejoin="round" stroke-miterlimit="10" stroke-width="10"/></g><g><path d="    M434.4,385.4l-106.6,25.4c-1.2,0.3-2.4-0.6-2.4-1.9v-54.6c0-0.9,0.6-1.7,1.5-1.9L433.5,327c1.2-0.3,2.4,0.6,2.4,1.9v54.6    C435.9,384.4,435.3,385.2,434.4,385.4z" fill="none" stroke="#000000" stroke-linecap="round" stroke-linejoin="round" stroke-miterlimit="10" stroke-width="10"/><g><line fill="none" stroke="#000000" stroke-linecap="round" stroke-linejoin="round" stroke-miterlimit="10" stroke-width="10" x1="325.5" x2="435.9" y1="373" y2="346.6"/><line fill="none" stroke="#000000" stroke-linecap="round" stroke-linejoin="round" stroke-miterlimit="10" stroke-width="10" x1="325.5" x2="435.9" y1="391.2" y2="364.9"/></g></g></g></svg>
